PathFileType	4	(X/Y/Z)	C:\Users\86182\Documents\cortex\Trimmed_M1_H3.trc
DataRate	CameraRate	NumFrames	NumMarkers	Units	OrigDataRate	OrigDataStartFrame	OrigNumFrames
100.00	100.00	       169	2	mm	100.00	191	       951
Frame#	Time	gripper			box			
		X1	Y1	Z1	X2	Y2	Z2	

191	1.900	217.01044	200.94489	224.03656	207.08592	200.73581	94.23804	
192	1.910	217.02458	200.98294	224.50900	206.40987	200.81691	95.07014	
193	1.920	216.36453	201.00525	225.14285	206.07794	200.86407	95.69114	
194	1.930	216.57974	201.11549	225.49048	205.97166	200.88698	96.17138	
195	1.940	216.85693	201.04443	225.89944	205.99060	200.89392	96.57031	
196	1.950	216.81929	200.97548	226.39490	206.06186	200.89146	96.93245	
197	1.960	216.59608	200.94904	226.84009	206.14095	200.88319	97.28560	
198	1.970	216.51297	201.17432	227.32040	206.20508	200.86938	97.64351	
199	1.980	216.43916	201.12082	227.81302	206.24545	200.84984	98.01132	
200	1.990	216.58476	201.05615	228.05896	206.26234	200.82639	98.39015	
201	2.000	216.87010	200.96103	228.24049	206.26178	200.80251	98.77943	
202	2.010	216.87332	201.12210	228.85970	206.25214	200.78162	99.17719	
203	2.020	216.16241	201.16946	229.59135	206.24092	200.76607	99.58005	
204	2.030	216.41066	201.11121	229.81958	206.23288	200.75716	99.98561	
205	2.040	216.52277	201.07616	229.99013	206.22990	200.75575	100.39490	
206	2.050	216.83870	201.09312	230.56100	206.23180	200.76205	100.81085	
207	2.060	217.02019	201.08519	230.94943	206.23726	200.77541	101.23486	
208	2.070	216.43054	201.18045	231.58685	206.24512	200.79480	101.66583	
209	2.080	216.54454	201.25877	232.02187	206.25490	200.81921	102.10277	
210	2.090	216.87663	201.14815	232.35843	206.26590	200.84706	102.54601	
211	2.100	216.87930	201.12280	232.74380	206.27634	200.87587	102.99527	
212	2.110	217.11520	201.17865	233.14365	206.28473	200.90363	103.44818	
213	2.120	216.64790	201.22379	233.98312	206.29117	200.92979	103.90108	
214	2.130	216.64168	201.21501	234.31012	206.29568	200.95448	104.35083	
215	2.140	216.56944	201.26196	234.66785	206.29604	200.97717	104.79507	
216	2.150	216.82095	201.26537	234.99792	206.28943	200.99709	105.23189	
217	2.160	216.99019	201.29855	235.66243	206.27548	201.01379	105.65945	
218	2.170	216.95457	201.28581	236.01167	206.25534	201.02690	106.07678	
219	2.180	216.73586	201.37732	236.39255	206.22884	201.03583	106.48515	
220	2.190	216.62498	201.27151	236.91927	206.19612	201.04068	106.88872	
221	2.200	216.72339	201.30475	237.23773	206.16124	201.04254	107.29279	
222	2.210	216.29143	201.37404	237.56447	206.13106	201.04265	107.70108	
223	2.220	217.12408	201.32729	238.03758	206.10977	201.04219	108.11478	
224	2.230	216.78159	201.34526	238.62323	206.09708	201.04253	108.53415	
225	2.240	216.91745	201.32797	238.89905	206.09225	201.04453	108.96005	
226	2.250	216.77705	201.32265	239.19894	206.09621	201.04793	109.39285	
227	2.260	216.39726	201.33844	239.89500	206.10869	201.05241	109.83061	
228	2.270	217.03612	201.31709	240.30341	206.12637	201.05817	110.27060	
229	2.280	217.01390	201.37036	240.68018	206.14444	201.06499	110.71238	
230	2.290	217.21873	201.38348	241.01369	206.15929	201.07179	111.15678	
231	2.300	216.86115	201.26947	241.58873	206.16992	201.07776	111.60202	
232	2.310	216.72330	201.40819	241.92513	206.17725	201.08296	112.04399	
233	2.320	217.01579	201.44810	242.40962	206.18138	201.08786	112.47981	
234	2.330	217.23575	201.38147	243.02025	206.17998	201.09291	112.90862	
235	2.340	217.21053	201.28902	243.32689	206.17041	201.09856	113.33008	
236	2.350	217.17989	201.33556	243.61006	206.15367	201.10449	113.74408	
237	2.360	217.09821	201.49840	244.01201	206.13373	201.10980	114.15138	
238	2.370	216.40384	201.45610	244.86296	206.11278	201.11368	114.55357	
239	2.380	216.68355	201.28394	245.10107	206.09016	201.11568	114.95232	
240	2.390	217.12703	201.24106	245.27982	206.06642	201.11548	115.34955	
241	2.400	217.29877	201.23763	245.70926	206.04530	201.11349	115.74788	
242	2.410	216.76530	201.26312	246.30687	206.03029	201.11177	116.14967	
243	2.420	216.43604	201.24760	246.65227	206.02097	201.11324	116.55650	
244	2.430	216.49402	201.28589	247.02797	206.01491	201.11913	116.97003	
245	2.440	216.80554	201.29576	247.65982	206.01208	201.12837	117.39226	
246	2.450	216.72815	201.11314	248.03320	206.01462	201.13953	117.82333	
247	2.460	216.64287	201.17639	248.41949	206.02225	201.15218	118.26115	
248	2.470	216.54288	201.20973	248.82028	206.03055	201.16603	118.70383	
249	2.480	216.31386	201.23695	249.64349	206.03473	201.18048	119.15038	
250	2.490	216.48497	201.19864	249.90572	206.03305	201.19528	119.59872	
251	2.500	217.07979	201.20201	249.96042	206.02711	201.21078	120.04561	
252	2.510	216.84921	201.17851	250.88794	206.01945	201.22719	120.48917	
253	2.520	216.62151	201.26398	251.15102	206.01115	201.24442	120.92920	
254	2.530	216.61200	201.29329	251.54510	206.00192	201.26224	121.36485	
255	2.540	216.29619	201.19093	252.22597	205.99171	201.27983	121.79451	
256	2.550	216.74631	201.26633	252.54974	205.98111	201.29590	122.21831	
257	2.560	216.62616	201.31354	252.96973	205.96996	201.30994	122.63835	
258	2.570	216.26801	201.18097	253.32079	205.95757	201.32248	123.05589	
259	2.580	216.23442	201.21672	253.95619	205.94472	201.33388	123.47072	
260	2.590	216.51385	201.34087	254.29848	205.93449	201.34380	123.88319	
261	2.600	216.70767	201.29349	254.45146	205.92932	201.35239	124.29482	
262	2.610	216.01373	201.16898	255.20616	205.92813	201.36107	124.70676	
263	2.620	216.04408	201.25739	255.70349	205.92831	201.37106	125.11995	
264	2.630	216.17770	201.29807	256.01813	205.92992	201.38234	125.53577	
265	2.640	216.30452	201.16692	256.36084	205.93549	201.39424	125.95494	
266	2.650	216.32739	201.02115	256.86801	205.94536	201.40677	126.37674	
267	2.660	216.03743	201.36284	257.45987	205.95570	201.42055	126.80096	
268	2.670	215.71913	201.35925	257.83466	205.96223	201.43590	127.22905	
269	2.680	215.94704	201.17641	258.28006	205.96400	201.45212	127.66177	
270	2.690	216.11903	201.24042	258.76483	205.96230	201.46762	128.09709	
271	2.700	216.38269	201.33348	259.11618	205.95764	201.48070	128.53197	
272	2.710	215.33823	201.27737	259.78427	205.94876	201.49005	128.96570	
273	2.720	215.67827	201.24628	260.24426	205.93437	201.49449	129.39902	
274	2.730	216.17131	201.33763	260.50235	205.91451	201.49223	129.83067	
275	2.740	215.66881	201.30290	261.10425	205.89008	201.48163	130.25777	
276	2.750	215.60028	201.27881	261.47836	205.86235	201.46313	130.67902	
277	2.760	215.40033	201.39276	262.02267	205.83295	201.43971	131.09583	
278	2.770	215.30595	201.45856	262.38077	205.80415	201.41476	131.51007	
279	2.780	215.60704	201.35130	262.67798	205.77922	201.39026	131.92264	
280	2.790	215.90549	201.28778	263.01169	205.76059	201.36670	132.33429	
281	2.800	215.73640	201.35704	263.51837	205.74748	201.34383	132.74606	
282	2.810	215.42194	201.44420	263.97116	205.73709	201.32150	133.15837	
283	2.820	215.19466	201.40166	264.43109	205.72821	201.29996	133.57120	
284	2.830	215.65074	201.41777	264.77246	205.72263	201.27931	133.98494	
285	2.840	215.71416	201.31165	265.22537	205.72240	201.25966	134.40057	
286	2.850	215.53905	201.42760	265.67200	205.72675	201.24190	134.81934	
287	2.860	215.63780	201.36667	266.13879	205.73358	201.22786	135.24261	
288	2.870	215.57162	201.48787	266.59705	205.74254	201.21948	135.67142	
289	2.880	215.56667	201.34779	266.96759	205.75496	201.21764	136.10545	
290	2.890	215.96359	201.37752	267.22620	205.77052	201.22121	136.54356	
291	2.900	215.81071	201.46327	267.95804	205.78551	201.22758	136.98598	
292	2.910	215.46140	201.45424	268.39026	205.79523	201.23470	137.43364	
293	2.920	215.52560	201.48441	268.81818	205.79692	201.24153	137.88487	
294	2.930	216.05116	201.42291	269.12857	205.79005	201.24776	138.33502	
295	2.940	215.84421	201.41570	269.64929	205.77522	201.25383	138.77998	
296	2.950	215.83757	201.50595	270.14999	205.75352	201.26044	139.21849	
297	2.960	215.77451	201.57964	270.61230	205.72726	201.26675	139.65056	
298	2.970	215.30701	201.50960	271.12036	205.70000	201.27100	140.07576	
299	2.980	215.64690	201.42142	271.41312	205.67467	201.27251	140.49425	
300	2.990	215.99605	201.52805	271.66714	205.65140	201.27214	140.90839	
301	3.000	216.04996	201.51318	272.29156	205.62830	201.27092	141.32124	
302	3.010	215.61594	201.56987	272.83911	205.60539	201.26958	141.73386	
303	3.020	215.57550	201.62132	273.14166	205.58624	201.26910	142.14563	
304	3.030	215.53606	201.68604	273.42935	205.57472	201.27045	142.55713	
305	3.040	215.83516	201.53009	273.84140	205.57117	201.27370	142.97084	
306	3.050	215.92073	201.48648	274.32574	205.57364	201.27876	143.38893	
307	3.060	215.91849	201.61948	274.84314	205.58226	201.28609	143.81157	
308	3.070	215.66829	201.65433	275.38324	205.59927	201.29568	144.23753	
309	3.080	215.50110	201.57596	275.72137	205.62445	201.30592	144.66545	
310	3.090	215.86520	201.56786	275.90552	205.65375	201.31490	145.09482	
311	3.100	216.31908	201.60614	276.28809	205.68298	201.32240	145.52617	
312	3.110	216.06383	201.59482	277.17090	205.71048	201.32913	145.95903	
313	3.120	215.74959	201.59831	277.52930	205.73508	201.33530	146.39070	
314	3.130	215.96851	201.70395	277.70813	205.75397	201.34174	146.81868	
315	3.140	216.20610	201.63684	278.15729	205.76407	201.35004	147.24419	
316	3.150	216.27017	201.49614	278.60660	205.76421	201.36040	147.67033	
317	3.160	216.00992	201.63982	279.24780	205.75558	201.37119	148.09750	
318	3.170	216.09183	201.66728	279.78671	205.74092	201.38126	148.52338	
319	3.180	216.00516	201.62788	280.02371	205.72226	201.39098	148.94682	
320	3.190	215.93958	201.65779	280.28790	205.69962	201.40073	149.36806	
321	3.200	216.41756	201.63724	280.55426	205.67253	201.40982	149.78569	
322	3.210	216.15474	201.73703	281.37448	205.64296	201.41734	150.19759	
323	3.220	216.09981	201.65263	281.84827	205.61493	201.42316	150.60451	
324	3.230	216.27715	201.66060	281.96060	205.59068	201.42793	151.00995	
325	3.240	216.15315	201.60442	282.25269	205.56950	201.43245	151.41612	
326	3.250	215.91798	201.63339	282.89154	205.55133	201.43665	151.82217	
327	3.260	215.84413	201.57568	283.43170	205.53857	201.43985	152.22630	
328	3.270	215.60062	201.57491	283.84283	205.53278	201.44182	152.62743	
329	3.280	216.28127	201.61392	284.11954	205.53169	201.44334	153.02457	
330	3.290	215.99246	201.43478	284.62756	205.53247	201.44543	153.41624	
331	3.300	215.58311	201.47821	284.91745	205.53641	201.44896	153.80055	
332	3.310	215.43365	201.58202	285.23672	205.54808	201.45526	154.17477	
333	3.320	215.97244	201.62144	285.81192	205.56947	201.46570	154.53534	
334	3.330	215.79715	201.54259	286.32242	205.59651	201.47981	154.87923	
335	3.340	216.01547	201.42314	286.41391	205.62183	201.49516	155.20569	
336	3.350	216.05934	201.36830	286.60541	205.64079	201.50974	155.51515	
337	3.360	216.06876	201.47180	286.77066	205.65414	201.52400	155.80592	
338	3.370	215.72296	201.69403	287.36719	205.66531	201.53972	156.07242	
339	3.380	215.54254	201.54366	287.72351	205.67696	201.55710	156.30769	
340	3.390	215.37024	201.58653	287.96918	205.68982	201.57404	156.50774	
341	3.400	215.61099	201.52621	288.13779	205.70364	201.58731	156.67412	
342	3.410	215.79449	201.49666	288.28937	205.71747	201.59390	156.81340	
343	3.420	215.88516	201.53998	288.27313	205.72968	201.59183	156.93442	
344	3.430	216.08627	201.58171	288.27960	205.73875	201.58153	157.04517	
345	3.440	216.13295	201.54449	288.37201	205.74391	201.56613	157.15036	
346	3.450	216.37009	201.50241	288.45892	205.74559	201.54996	157.25113	
347	3.460	216.40224	201.53290	288.48849	205.74533	201.53645	157.34627	
348	3.470	216.70908	201.65956	288.54697	205.74533	201.52699	157.43277	
349	3.480	216.80457	201.66861	288.62268	205.74728	201.52130	157.50665	
350	3.490	216.66493	201.62431	288.74945	205.75125	201.51840	157.56462	
351	3.500	216.51848	201.57657	288.86102	205.75615	201.51738	157.60577	
352	3.510	216.37758	201.55890	288.93585	205.76082	201.51746	157.63170	
353	3.520	216.39922	201.54147	288.93744	205.76463	201.51813	157.64569	
354	3.530	216.27921	201.54056	288.98328	205.76747	201.51909	157.65152	
355	3.540	216.46190	201.54347	288.91672	205.76947	201.52019	157.65263	
356	3.550	216.33853	201.54759	288.96075	205.77089	201.52147	157.65173	
357	3.560	216.42986	201.55603	288.92639	205.77203	201.52301	157.65068	
358	3.570	216.52960	201.50035	288.89874	205.77313	201.52495	157.65047	
359	3.580	216.62039	201.54303	288.84406	205.77423	201.52730	157.65125	
